<svg version="1.1" xmlns="http://www.w3.org/2000/svg" xmlns:xlink="http://www.w3.org/1999/xlink" width="572" height="32" viewBox="0 0 572 32">
  <symbol id="icon-gear" viewBox="0 0 32 32">
    <path fill="#b6c4cf" d="M32 17.823v-3.646c0-0.715-0.579-1.294-1.294-1.294h-1.394c-0.558 0-1.052-0.357-1.227-0.886-0.195-0.59-0.432-1.16-0.708-1.708-0.251-0.499-0.155-1.102 0.24-1.497l0.986-0.987c0.505-0.505 0.505-1.325 0-1.83l-2.578-2.578c-0.505-0.505-1.325-0.505-1.83 0l-0.986 0.987c-0.395 0.395-0.998 0.491-1.497 0.24-0.548-0.276-1.118-0.513-1.708-0.708-0.529-0.175-0.886-0.67-0.886-1.227v-1.394c0-0.715-0.579-1.294-1.294-1.294h-3.646c-0.715 0-1.294 0.579-1.294 1.294v1.394c0 0.558-0.357 1.052-0.886 1.227-0.59 0.195-1.16 0.432-1.708 0.708-0.499 0.251-1.102 0.155-1.497-0.24l-0.987-0.987c-0.505-0.505-1.325-0.505-1.83 0l-2.578 2.578c-0.505 0.505-0.505 1.325 0 1.83l0.987 0.986c0.395 0.395 0.491 0.998 0.24 1.497-0.276 0.548-0.513 1.118-0.708 1.708-0.124 0.374-0.407 0.662-0.76 0.799-0.146 0.057-0.24 0.152-0.404 0.152h-1.394c-0.715 0-1.294 0.579-1.294 1.294v3.517c0 0.715 0.579 1.294 1.294 1.294h1.394c0.558 0 1.052 0.422 1.227 0.951 0.195 0.59 0.432 1.16 0.708 1.708 0.251 0.499 0.155 1.102-0.24 1.497l-0.922 0.986c-0.505 0.505-0.505 1.325 0 1.83l2.449 2.449c0.505 0.505 1.325 0.505 1.83 0l0.986-0.986c0.395-0.395 0.998-0.491 1.497-0.24 0.548 0.276 1.247 0.577 1.837 0.772 0.529 0.175 0.886 0.67 0.886 1.227v1.394c0 0.715 0.579 1.294 1.294 1.294h3.453c0.715 0 1.294-0.579 1.294-1.294v-1.394c0-0.164 0.095-0.257 0.152-0.404 0.137-0.352 0.425-0.636 0.799-0.76 0.59-0.195 1.16-0.432 1.708-0.708 0.499-0.251 1.102-0.155 1.497 0.24l0.986 0.986c0.505 0.505 1.325 0.505 1.83 0l2.578-2.578c0.505-0.505 0.505-1.325 0-1.83l-0.986-0.986c-0.395-0.395-0.491-0.998-0.24-1.497 0.276-0.548 0.513-1.118 0.708-1.708 0.175-0.529 0.67-0.886 1.227-0.886h1.394c0.715 0 1.294-0.579 1.294-1.294v0z"></path>
    <path fill="#9facba" d="M19.204 28.844c-0.057 0.146-0.088 0.305-0.088 0.468v1.394c0 0.715-0.579 1.294-1.294 1.294h-3.646c-0.715 0-1.294-0.58-1.294-1.294v-1.394c0-0.558-0.357-1.053-0.887-1.228-0.589-0.195-1.16-0.432-1.708-0.708-0.499-0.251-1.102-0.155-1.497 0.24l-0.986 0.986c-0.505 0.505-1.325 0.505-1.83 0l-2.578-2.577c-0.505-0.505-0.505-1.325 0-1.83l0.987-0.986c0.395-0.395 0.491-0.998 0.24-1.497-0.276-0.548-0.513-1.118-0.708-1.708-0.175-0.529-0.67-0.887-1.228-0.887h-1.394c-0.715 0-1.294-0.579-1.294-1.294v-3.646c0-0.715 0.579-1.294 1.294-1.294h1.394c0.164 0 0.322-0.031 0.468-0.088-0.001 0.081-0.002 0.162-0.002 0.243 0 8.73 7.077 15.808 15.807 15.808 0.081 0 0.162-0.001 0.243-0.002v0z"></path>
    <path fill="#9facba" d="M16 26.624c5.867 0 10.624-4.756 10.624-10.624s-4.756-10.624-10.624-10.624c-5.867 0-10.624 4.756-10.624 10.624s4.756 10.624 10.624 10.624z"></path>
    <path fill="#f8f7f7" d="M16 24.37c4.623 0 8.37-3.747 8.37-8.37s-3.747-8.37-8.37-8.37c-4.623 0-8.37 3.747-8.37 8.37s3.747 8.37 8.37 8.37z"></path>
  </symbol>
  <symbol id="icon-plane" viewBox="0 0 35 26">
    <path fill="#d5d6db" d="M20.029 18.066c-0.282 0.063-0.557 0.18-0.808 0.344-0.653 0.416-1.032 1.009-0.848 1.326s0.863 0.235 1.515-0.18c0.254-0.158 0.479-0.36 0.663-0.593 0.085-0.113 0.1-0.253 0.039-0.358l-0.239-0.411c-0.061-0.105-0.187-0.155-0.322-0.128z"></path>
    <path fill="#d5d6db" d="M18.39 12.457c-0.205 0.046-0.404 0.131-0.586 0.249-0.473 0.301-0.749 0.732-0.615 0.961s0.626 0.17 1.099-0.131c0.184-0.114 0.348-0.261 0.481-0.43 0.062-0.082 0.073-0.183 0.028-0.259l-0.173-0.298c-0.044-0.076-0.136-0.113-0.233-0.093z"></path>
    <path fill="#029bc5" d="M15.727 12.692c-0.046-0.005-0.094 0.007-0.136 0.034l-1.111 0.708c-0.093 0.059-0.13 0.173-0.083 0.254 0.011 0.019 0.026 0.035 0.043 0.047l2.739 1.888 3.706-2.361-5.158-0.569z"></path>
    <path fill="#e1e6e9" d="M27.442 12.425l-10.085 6.348-5.966 2.374-3.043 0.605-0.335-0.569 16.809-10.379c0.501-0.311 1.059-0.501 1.618-0.553 0.245-0.021 0.486-0.013 0.719 0.024 0.207 0.031 0.402 0.092 0.582 0.179 0.2 0.099 0.582 0.111 0.705 0.309 0-0 0.292 0.909-1.005 1.66z"></path>
    <path fill="#029bc5" d="M17.491 17.933l-4.363 6.955c-0.055 0.098-0.022 0.207 0.072 0.244 0.058 0.023 0.129 0.014 0.188-0.024l1.11-0.704c0.214-0.136 0.403-0.308 0.556-0.506l8.461-9.947-6.024 3.982z"></path>
    <path fill="#029bc5" d="M6.482 17.701c-0.073-0.025-0.159-0.012-0.232 0.035l-0.918 0.585c-0.125 0.080-0.175 0.233-0.111 0.342 0.012 0.021 0.028 0.039 0.047 0.054l2.572 2.060 2.704-1.689-4.061-1.386z"></path>
    <path fill="#029bc5" d="M8.701 21.147l-1.384 1.939c-0.020 0.028-0.016 0.063 0.011 0.078 0.019 0.011 0.045 0.009 0.066-0.005l0.858-0.544c0.007-0.004 0.013-0.010 0.018-0.016l2.023-2.459-1.59 1.007z"></path>
    <path fill="#029bc5" d="M26.994 10.36c-0.24-0.039-0.489-0.047-0.741-0.025-0.245 0.343-0.402 0.728-0.455 1.118-0.004 0.078 0.059 0.134 0.141 0.126 0.025-0.003 0.051-0.012 0.073-0.026l1.581-1.007c-0.185-0.091-0.387-0.154-0.599-0.186z"></path>
    <path fill="#d5d6db" d="M23.549 12.211l1.032-0.652 0.961 1.635-1.032 0.652-0.961-1.635z"></path>
    <path fill="#3a556a" d="M22.9 12.858c-0.124 0.079-0.174 0.23-0.111 0.338l0.102 0.175c0.067 0.105 0.221 0.124 0.343 0.041 0.116-0.079 0.163-0.221 0.107-0.327l-0.102-0.175c-0.063-0.108-0.215-0.132-0.339-0.053z"></path>
    <path fill="#3a556a" d="M21.972 13.434c-0.124 0.079-0.174 0.23-0.111 0.338l0.102 0.175c0.067 0.105 0.221 0.124 0.343 0.041 0.116-0.079 0.163-0.221 0.107-0.327l-0.102-0.175c-0.063-0.108-0.215-0.132-0.339-0.053z"></path>
    <path fill="#3a556a" d="M21.044 14.010c-0.124 0.079-0.174 0.23-0.111 0.338l0.102 0.175c0.067 0.105 0.221 0.124 0.343 0.041 0.116-0.079 0.163-0.221 0.107-0.327l-0.102-0.175c-0.063-0.108-0.215-0.132-0.34-0.053z"></path>
    <path fill="#3a556a" d="M20.117 14.586c-0.124 0.079-0.174 0.23-0.111 0.338l0.102 0.175c0.067 0.105 0.221 0.124 0.343 0.041 0.116-0.079 0.163-0.221 0.107-0.327l-0.102-0.175c-0.063-0.108-0.215-0.132-0.34-0.053z"></path>
    <path fill="#3a556a" d="M19.189 15.162c-0.124 0.079-0.174 0.23-0.111 0.338l0.102 0.175c0.063 0.108 0.215 0.132 0.339 0.053s0.174-0.23 0.111-0.338l-0.102-0.175c-0.063-0.108-0.215-0.132-0.339-0.053-0 0-0 0-0 0z"></path>
    <path fill="#3a556a" d="M18.262 15.738c-0.124 0.079-0.174 0.23-0.111 0.338l0.102 0.175c0.063 0.108 0.215 0.132 0.339 0.053s0.174-0.23 0.111-0.338l-0.102-0.175c-0.063-0.108-0.215-0.132-0.339-0.053-0 0-0 0-0 0z"></path>
    <path fill="#3a556a" d="M17.334 16.314c-0.124 0.079-0.174 0.23-0.111 0.338l0.102 0.175c0.063 0.108 0.215 0.131 0.34 0.052s0.174-0.23 0.111-0.337l-0.102-0.175c-0.063-0.108-0.215-0.132-0.339-0.053z"></path>
    <path fill="#3a556a" d="M16.406 16.891c-0.124 0.079-0.174 0.23-0.111 0.338l0.102 0.175c0.063 0.108 0.215 0.131 0.34 0.052s0.174-0.23 0.111-0.337l-0.102-0.175c-0.063-0.108-0.215-0.132-0.339-0.053z"></path>
    <path fill="#3a556a" d="M15.478 17.467c-0.124 0.079-0.174 0.23-0.111 0.338l0.102 0.175c0.063 0.108 0.215 0.131 0.339 0.052s0.174-0.23 0.111-0.337l-0.102-0.175c-0.063-0.108-0.215-0.132-0.339-0.053z"></path>
    <path fill="#3a556a" d="M14.55 18.043c-0.124 0.079-0.174 0.23-0.111 0.338l0 0 0.102 0.175c0.063 0.108 0.215 0.131 0.339 0.052s0.174-0.23 0.111-0.337l-0.102-0.175c-0.063-0.108-0.215-0.132-0.339-0.053z"></path>
    <path fill="#3a556a" d="M13.623 18.619c-0.124 0.079-0.174 0.23-0.111 0.338l0 0 0.102 0.175c0.063 0.108 0.215 0.131 0.339 0.052s0.174-0.23 0.111-0.337l-0.102-0.175c-0.063-0.108-0.215-0.132-0.339-0.053z"></path>
  </symbol>
  <symbol id="icon-sattelite" viewBox="0 0 31 32">
    <path fill="#407093" d="M11.293 20.783l-0.775-0.371-4.602 6.804h5.136l0.495-0.323v-5.878l-0.254-0.233z"></path>
    <path fill="#365e7d" d="M10.589 20.445l-1.742-0.834h-0.328l-4.925 7.281 0.293 0.323h2.122l4.579-6.77z"></path>
    <path fill="#4a80aa" d="M12.472 26.893h-6.791c-0.308 0-0.559 0.25-0.559 0.559v0.708c0 0.308 0.25 0.558 0.558 0.559h6.791c0.309 0 0.559-0.25 0.559-0.559v-0.708c0-0.309-0.25-0.559-0.559-0.559v0z"></path>
    <path fill="#407093" d="M5.238 28.159v-0.708c0-0.308 0.25-0.559 0.559-0.559h-3.597c-0.308 0-0.559 0.25-0.559 0.559v0.708c0 0.308 0.25 0.559 0.559 0.559h3.597c-0.309 0-0.559-0.25-0.559-0.559v0z"></path>
    <path fill="#4a80aa" d="M10.355 16.403c-0.209 0.431-0.327 0.915-0.327 1.426 0 1.398 0.875 2.59 2.107 3.062 0.529-0.166 0.999-0.465 1.37-0.858v-0.714l-3.15-2.916z"></path>
    <path fill="#407093" d="M10.083 17.841c0-0.5 0.116-0.972 0.32-1.393l-1.007-0.932h-0.409c-0.618 0.583-1.004 1.409-1.004 2.325 0 1.765 1.431 3.196 3.196 3.196 0.368 0 0.72-0.063 1.049-0.177-1.249-0.435-2.146-1.622-2.146-3.019v0z"></path>
    <path fill="#ffd086" d="M28.641 0.379c-0.506-0.506-1.326-0.506-1.832 0l-1.236 1.236v0.157l1.543 1.608 0.289 0.067 1.236-1.236c0.506-0.506 0.506-1.326 0-1.832v0z"></path>
    <path fill="#ffc365" d="M28.983 0.991c-0.054-0.224-0.167-0.437-0.342-0.611-0.506-0.506-1.326-0.506-1.832 0l-1.236 1.236v0.157l0.818 0.853c0.488-0.507 0.972-1.008 1.221-1.257 0.415-0.415 1.021-0.418 1.371-0.377v0z"></path>
    <path fill="#365e7d" d="M24.409 3.672c-0.014 0-0.029-0.001-0.043-0.002l-14.284-1.406c-0.238-0.023-0.412-0.236-0.389-0.474s0.236-0.412 0.474-0.389l14.284 1.406c0.238 0.023 0.412 0.236 0.389 0.474-0.022 0.224-0.211 0.391-0.431 0.391z"></path>
    <path fill="#407093" d="M14.214 6.346c-0.192 0-0.368-0.129-0.419-0.324-0.061-0.232 0.078-0.468 0.309-0.529l10.195-2.674c0.232-0.061 0.468 0.078 0.529 0.309s-0.078 0.468-0.309 0.529l-10.195 2.674c-0.037 0.010-0.074 0.014-0.11 0.014v0z"></path>
    <path fill="#365e7d" d="M27.178 19.338c-0.22 0-0.409-0.167-0.431-0.391l-1.397-14.292c-0.023-0.238 0.151-0.45 0.389-0.474 0.238-0.022 0.45 0.151 0.473 0.389l1.397 14.292c0.023 0.238-0.151 0.45-0.389 0.474-0.014 0.001-0.029 0.002-0.043 0.002z"></path>
    <path fill="#407093" d="M23.067 15.281c-0.037 0-0.074-0.005-0.111-0.015-0.231-0.061-0.369-0.299-0.308-0.53l2.713-10.234c0.061-0.231 0.299-0.369 0.53-0.308s0.369 0.299 0.308 0.53l-2.713 10.234c-0.051 0.194-0.227 0.322-0.419 0.322v0z"></path>
    <path fill="#ffc365" d="M24.331 2.857l1.239-1.239 1.831 1.831-1.239 1.239-1.831-1.831z"></path>
    <path fill="#ffa90f" d="M25.272 3.793c0.298-0.312 0.763-0.798 1.213-1.266l-0.912-0.912-1.239 1.239 0.938 0.938z"></path>
    <path fill="#4a80aa" d="M26.441 5.396c-0.111 0-0.222-0.042-0.306-0.127l-2.383-2.383c-0.169-0.169-0.169-0.444 0-0.613s0.444-0.169 0.613 0l2.383 2.383c0.169 0.169 0.169 0.444 0 0.613-0.085 0.085-0.196 0.127-0.306 0.127z"></path>
    <path fill="#b5dcff" d="M26.721 20.118l-14.511-14.637c-1.924 4.343-2.258 9.006-0.818 13.026 3.978 3.588 9.919 4.139 15.39 1.884l-0.061-0.273z"></path>
    <path fill="#8bcaff" d="M12.287 5.559l-3.325-3.354-0.333 0.033c-2.342 5.681-1.658 11.871 2.311 15.841 0.24 0.24 0.489 0.469 0.745 0.685-1.673-4.016-1.402-8.792 0.601-13.205v0z"></path>
    <path fill="#dbedff" d="M28.047 19.078l-14.717-14.717c-0.145 0.022-0.284 0.088-0.396 0.2l-0.64 0.64c-0.137 0.137-0.206 0.317-0.208 0.497l14.671 14.671c0.218 0.218 0.572 0.218 0.79 0l0.501-0.5c0.218-0.218 0.218-0.572-0-0.79z"></path>
    <path fill="#b5dcff" d="M12.316 5.211l0.627-0.627c0.115-0.115 0.261-0.182 0.412-0.199l-3.412-3.412c-0.218-0.218-0.572-0.218-0.79 0l-0.501 0.501c-0.218 0.218-0.218 0.572 0 0.79l3.46 3.46c-0.005-0.185 0.063-0.371 0.204-0.512v0z"></path>
  </symbol>
  <symbol id="icon-arrow" viewBox="0 0 30 32">
    <path d="M29.054 3.129l-11.989 26.667c-0.1 0.223-0.27 0.407-0.484 0.521s-0.458 0.153-0.695 0.111c-0.237-0.042-0.454-0.164-0.617-0.345s-0.262-0.413-0.281-0.657l-1.014-12.396-12.16-1.033c-0.24-0.020-0.467-0.121-0.645-0.287s-0.297-0.387-0.339-0.629c-0.042-0.242-0.003-0.491 0.109-0.709s0.292-0.391 0.511-0.493l26.159-12.222c0.202-0.094 0.428-0.124 0.647-0.083s0.421 0.148 0.578 0.308 0.263 0.366 0.302 0.589c0.039 0.223 0.011 0.453-0.082 0.659l0 0z">
    </path>
  </symbol>
  <symbol id="icon-quater" viewBox="0 0 32 32">
    <path fill="#fff" style="fill: var(--color1, #fff)" d="M0.792 6.51c-0.431 0-0.784-0.353-0.792-0.784v-4.933c0-0.439 0.353-0.792 0.792-0.792h4.933c0.431 0 0.784 0.353 0.784 0.792v1.718h18.98v-1.718c0-0.431 0.353-0.784 0.784-0.792h4.933c0.431 0 0.784 0.353 0.792 0.792v4.933c0 0.431-0.353 0.784-0.792 0.784h-1.718v18.98h1.718c0.431 0 0.784 0.353 0.792 0.784v4.933c0 0.431-0.353 0.784-0.792 0.792h-4.933c-0.431 0-0.784-0.353-0.784-0.792v-1.718h-18.98v1.718c0 0.431-0.353 0.784-0.784 0.792h-4.933c-0.431 0-0.784-0.353-0.792-0.792v-4.933c0-0.431 0.353-0.784 0.792-0.784h1.718v-18.98h-1.718zM30.431 4.941v-3.373h-3.373v3.373h3.373zM27.059 30.431h3.373v-3.373h-3.373v3.373zM6.51 26.274v1.647h18.98v-1.647c0-0.431 0.353-0.784 0.784-0.784h1.647v-18.98h-1.647c-0.431 0-0.784-0.353-0.784-0.784v-1.647h-18.98v1.647c0 0.431-0.353 0.784-0.784 0.784h-1.647v18.98h1.647c0.431 0 0.784 0.353 0.784 0.784zM1.569 27.059v3.373h3.373v-3.373h-3.373zM4.941 4.941v-3.373h-3.373v3.373h3.373z"></path>
  </symbol>
  <symbol id="icon-swimmer" viewBox="0 0 39 22">
    <path fill="#fff" style="fill: var(--color1, #fff)" d="M30.546 22.066c-0.554 0.011-1.098-0.147-1.56-0.454-0.343-0.224-0.745-0.344-1.155-0.344s-0.811 0.119-1.155 0.344c-0.466 0.297-1.007 0.454-1.559 0.454s-1.093-0.158-1.559-0.454c-0.343-0.225-0.745-0.344-1.155-0.344s-0.812 0.119-1.155 0.344c-0.466 0.297-1.007 0.454-1.559 0.454s-1.093-0.158-1.559-0.454c-0.343-0.224-0.744-0.344-1.154-0.344s-0.811 0.12-1.154 0.344c-0.423 0.281-0.916 0.437-1.423 0.45l-0.028-0.798c0.375-0.009 0.738-0.127 1.046-0.341 0.466-0.297 1.007-0.454 1.559-0.454s1.093 0.158 1.559 0.454c0.343 0.224 0.745 0.344 1.155 0.344s0.811-0.119 1.155-0.344c0.466-0.297 1.007-0.455 1.56-0.455s1.094 0.158 1.56 0.455c0.343 0.224 0.745 0.344 1.155 0.344s0.812-0.119 1.155-0.344c0.466-0.296 1.007-0.454 1.559-0.454s1.093 0.158 1.559 0.454c0.344 0.225 0.746 0.345 1.158 0.345s0.813-0.12 1.158-0.345c0.461-0.306 1.004-0.464 1.557-0.453v0.798c-0.412-0.011-0.816 0.109-1.155 0.344-0.462 0.307-1.008 0.466-1.563 0.455z"></path>
    <path fill="#fff" style="fill: var(--color1, #fff)" d="M8.835 22.066c-0.554 0.011-1.098-0.147-1.559-0.454-0.339-0.235-0.743-0.355-1.155-0.344v-0.798c0.554-0.012 1.098 0.147 1.56 0.454 0.338 0.235 0.743 0.355 1.155 0.344 0.412 0.011 0.817-0.109 1.155-0.345 0.46-0.307 1.004-0.465 1.557-0.454 0.54-0.012 1.070 0.139 1.523 0.434l-0.403 0.689c-0.33-0.222-0.722-0.336-1.12-0.325-0.41-0.011-0.813 0.109-1.15 0.343-0.462 0.308-1.007 0.467-1.562 0.455z"></path>
    <path fill="#fff" style="fill: var(--color1, #fff)" d="M30.547 19.271c-0.554 0.011-1.099-0.147-1.561-0.454-0.344-0.224-0.745-0.344-1.156-0.344s-0.812 0.12-1.156 0.344c-0.466 0.297-1.007 0.454-1.559 0.454s-1.093-0.158-1.559-0.454c-0.343-0.224-0.744-0.344-1.154-0.344s-0.811 0.119-1.154 0.344c-0.466 0.297-1.007 0.454-1.559 0.454s-1.093-0.158-1.559-0.454c-0.343-0.224-0.744-0.344-1.154-0.344s-0.811 0.119-1.154 0.344c-0.461 0.307-1.005 0.466-1.559 0.454-0.554 0.011-1.098-0.147-1.559-0.454-0.338-0.235-0.743-0.355-1.154-0.344-0.412-0.011-0.816 0.109-1.154 0.344-0.46 0.307-1.004 0.465-1.557 0.454-0.554 0.011-1.098-0.147-1.56-0.454-0.339-0.235-0.744-0.356-1.157-0.344v-0.798c0.554-0.011 1.098 0.147 1.559 0.454 0.339 0.235 0.743 0.355 1.155 0.344 0.412 0.011 0.816-0.109 1.154-0.344 0.46-0.307 1.004-0.465 1.557-0.454 0.554-0.012 1.099 0.147 1.56 0.454 0.338 0.235 0.743 0.355 1.155 0.344 0.412 0.011 0.816-0.109 1.155-0.344 0.466-0.297 1.007-0.454 1.559-0.454s1.093 0.158 1.559 0.454c0.343 0.224 0.744 0.344 1.155 0.344s0.811-0.119 1.155-0.344c0.466-0.297 1.007-0.454 1.559-0.454s1.093 0.158 1.559 0.454c0.343 0.224 0.744 0.344 1.155 0.344s0.811-0.119 1.155-0.344c0.466-0.297 1.008-0.454 1.56-0.454s1.094 0.158 1.56 0.454c0.344 0.224 0.746 0.344 1.156 0.344s0.812-0.119 1.156-0.344c0.462-0.307 1.006-0.465 1.56-0.454v0.798c-0.413-0.012-0.818 0.109-1.158 0.344-0.461 0.307-1.006 0.465-1.56 0.454z"></path>
    <path fill="#fff" style="fill: var(--color1, #fff)" d="M30.546 16.478c-0.554 0.011-1.098-0.147-1.56-0.454-0.339-0.235-0.743-0.355-1.155-0.344-0.302-0.010-0.602 0.054-0.874 0.188l-0.352-0.719c0.381-0.187 0.802-0.279 1.226-0.269 0.555-0.011 1.1 0.148 1.561 0.456 0.344 0.225 0.746 0.345 1.158 0.345s0.813-0.12 1.158-0.345c0.461-0.306 1.004-0.465 1.557-0.454v0.798c-0.412-0.011-0.816 0.109-1.155 0.344-0.462 0.308-1.008 0.466-1.563 0.455z"></path>
    <path fill="#fff" style="fill: var(--color1, #fff)" d="M25.113 16.477c-0.553 0.012-1.096-0.147-1.557-0.454-0.343-0.225-0.745-0.344-1.155-0.344s-0.812 0.12-1.155 0.344c-0.466 0.297-1.007 0.454-1.559 0.454s-1.093-0.158-1.559-0.454c-0.343-0.225-0.745-0.344-1.155-0.344s-0.812 0.12-1.155 0.344c-0.461 0.307-1.005 0.465-1.558 0.454-0.554 0.011-1.098-0.147-1.559-0.454-0.339-0.235-0.743-0.355-1.155-0.344-0.41-0.011-0.813 0.109-1.15 0.343-0.461 0.308-1.006 0.467-1.56 0.455-0.554 0.011-1.098-0.147-1.559-0.454-0.339-0.235-0.743-0.355-1.155-0.344v-0.798c0.554-0.012 1.098 0.147 1.56 0.454 0.338 0.235 0.743 0.355 1.155 0.344 0.412 0.011 0.817-0.109 1.155-0.345 0.46-0.307 1.004-0.465 1.557-0.454 0.554-0.011 1.098 0.147 1.559 0.454 0.338 0.235 0.743 0.355 1.155 0.344 0.412 0.011 0.817-0.109 1.155-0.344 0.466-0.297 1.007-0.454 1.559-0.454s1.093 0.158 1.559 0.454c0.343 0.224 0.745 0.344 1.155 0.344s0.811-0.12 1.155-0.344c0.466-0.297 1.007-0.455 1.56-0.455s1.094 0.158 1.56 0.455c0.352 0.236 0.769 0.357 1.192 0.344 0.031 0 0.062-0.001 0.092-0.005l0.106 0.791c-0.080 0.009-0.161 0.014-0.241 0.012z"></path>
    <path fill="#fff" style="fill: var(--color1, #fff)" d="M30.547 13.683c-0.554 0.011-1.099-0.147-1.561-0.454-0.344-0.225-0.745-0.344-1.156-0.344s-0.812 0.12-1.156 0.344c-0.466 0.297-1.007 0.454-1.559 0.454s-1.093-0.158-1.559-0.454c-0.343-0.225-0.744-0.344-1.154-0.344s-0.811 0.12-1.154 0.344c-0.466 0.297-1.007 0.454-1.559 0.454s-1.093-0.158-1.559-0.454c-0.343-0.225-0.744-0.344-1.154-0.344s-0.811 0.12-1.154 0.344c-0.461 0.307-1.005 0.466-1.559 0.454-0.554 0.011-1.098-0.147-1.559-0.454-0.338-0.235-0.743-0.355-1.154-0.344-0.412-0.011-0.816 0.109-1.154 0.344-0.46 0.307-1.004 0.465-1.557 0.454-0.554 0.011-1.098-0.147-1.56-0.454-0.339-0.235-0.744-0.356-1.157-0.344v-0.798c0.554-0.011 1.098 0.147 1.559 0.454 0.339 0.235 0.743 0.355 1.155 0.344 0.412 0.011 0.816-0.109 1.154-0.344 0.46-0.307 1.004-0.465 1.557-0.454 0.554-0.012 1.099 0.147 1.56 0.454 0.338 0.235 0.743 0.355 1.155 0.344 0.412 0.011 0.816-0.109 1.155-0.344 0.466-0.297 1.007-0.454 1.559-0.454s1.093 0.158 1.559 0.454c0.343 0.224 0.744 0.344 1.155 0.344s0.811-0.12 1.155-0.344c0.466-0.297 1.007-0.454 1.559-0.454s1.093 0.158 1.559 0.454c0.343 0.224 0.744 0.344 1.155 0.344s0.811-0.12 1.155-0.344c0.466-0.297 1.008-0.454 1.56-0.454s1.094 0.158 1.56 0.454c0.344 0.224 0.746 0.344 1.156 0.344s0.812-0.12 1.156-0.344c0.462-0.307 1.006-0.466 1.56-0.454v0.798c-0.413-0.012-0.818 0.109-1.158 0.344-0.461 0.307-1.006 0.465-1.56 0.454z"></path>
    <path fill="#fff" style="fill: var(--color1, #fff)" d="M24.859 13.344l-0.753-0.264c0.194-0.557 0.273-1.148 0.233-1.737s-0.199-1.163-0.467-1.689l-2.742-5.369c-0.027-0.053-0.042-0.111-0.044-0.171s0.010-0.119 0.034-0.173c0.024-0.054 0.060-0.103 0.106-0.141s0.099-0.067 0.156-0.082l5.464-1.457c0.178-0.047 0.331-0.162 0.424-0.32s0.121-0.347 0.076-0.526-0.159-0.332-0.316-0.427c-0.158-0.095-0.346-0.124-0.525-0.081l-6.613 1.581c-0.141 0.033-0.273 0.099-0.385 0.191s-0.201 0.21-0.261 0.342c-0.059 0.133-0.088 0.277-0.082 0.422s0.044 0.287 0.113 0.415l1.964 3.648c0.050 0.093 0.061 0.201 0.031 0.302s-0.098 0.186-0.191 0.237l-2.535 1.397-0.385-0.699 2.188-1.206-1.775-3.3c-0.127-0.236-0.198-0.497-0.208-0.765s0.042-0.534 0.152-0.778 0.274-0.46 0.48-0.63c0.206-0.171 0.449-0.291 0.709-0.353l6.61-1.58c0.385-0.097 0.793-0.038 1.133 0.166s0.587 0.534 0.684 0.919 0.038 0.792-0.166 1.133c-0.203 0.341-0.534 0.587-0.919 0.684l-4.987 1.329 2.518 4.929c0.317 0.622 0.505 1.302 0.552 1.999s-0.047 1.396-0.276 2.055z"></path>
    <path fill="#fff" style="fill: var(--color1, #fff)" d="M16.766 9.518l-4.851 2.673 0.385 0.699 4.851-2.673-0.385-0.699z"></path>
    <path fill="#fff" style="fill: var(--color1, #fff)" d="M28.474 10.689c-0.592 0-1.171-0.176-1.663-0.505s-0.876-0.797-1.103-1.344-0.286-1.149-0.17-1.73c0.116-0.581 0.401-1.114 0.819-1.533s0.952-0.704 1.533-0.819c0.581-0.116 1.183-0.056 1.73 0.17s1.015 0.61 1.343 1.103 0.505 1.071 0.505 1.663c-0.001 0.794-0.317 1.555-0.878 2.116s-1.322 0.877-2.116 0.878zM28.474 5.5c-0.434 0-0.859 0.129-1.22 0.37s-0.642 0.584-0.809 0.985-0.21 0.843-0.125 1.268c0.085 0.426 0.294 0.817 0.601 1.124s0.698 0.516 1.124 0.601c0.426 0.085 0.867 0.041 1.269-0.125s0.744-0.448 0.985-0.809 0.37-0.786 0.37-1.22c-0.001-0.582-0.232-1.14-0.644-1.552s-0.97-0.643-1.552-0.644z"></path>
  </symbol>
  <symbol id="icon-taxi" viewBox="0 0 35 26">
    <path fill="#fff" style="fill: var(--color1, #fff)" d="M9.714 12.714c-0.339 0-0.671 0.101-0.952 0.289s-0.502 0.456-0.631 0.769c-0.13 0.313-0.164 0.658-0.098 0.99s0.229 0.638 0.469 0.878c0.24 0.24 0.545 0.403 0.878 0.469s0.677 0.032 0.99-0.098c0.313-0.13 0.581-0.35 0.769-0.631s0.289-0.613 0.289-0.952c0-0.455-0.181-0.891-0.502-1.212s-0.758-0.502-1.212-0.502zM9.714 15.286c-0.17 0-0.335-0.050-0.476-0.144s-0.251-0.228-0.316-0.385c-0.065-0.157-0.082-0.329-0.049-0.495s0.115-0.319 0.235-0.439c0.12-0.12 0.273-0.201 0.439-0.235s0.339-0.016 0.495 0.049 0.29 0.175 0.385 0.316c0.094 0.141 0.144 0.307 0.144 0.476 0 0.227-0.090 0.445-0.251 0.606s-0.379 0.251-0.606 0.251z"></path>
    <path fill="#fff" style="fill: var(--color1, #fff)" d="M26.857 12.714c-0.339 0-0.671 0.101-0.952 0.289s-0.502 0.456-0.631 0.769c-0.13 0.313-0.164 0.658-0.098 0.99s0.23 0.638 0.469 0.878c0.24 0.24 0.545 0.403 0.878 0.469s0.677 0.032 0.99-0.098c0.313-0.13 0.581-0.35 0.769-0.631s0.289-0.613 0.289-0.952c0-0.455-0.181-0.891-0.502-1.212s-0.758-0.502-1.212-0.502zM26.857 15.286c-0.169 0-0.335-0.050-0.476-0.144s-0.251-0.228-0.316-0.385c-0.065-0.157-0.082-0.329-0.049-0.495s0.115-0.319 0.235-0.439c0.12-0.12 0.273-0.201 0.439-0.235s0.339-0.016 0.495 0.049c0.157 0.065 0.291 0.175 0.385 0.316s0.144 0.307 0.144 0.476c0 0.227-0.090 0.445-0.251 0.606s-0.379 0.251-0.606 0.251z"></path>
    <path fill="#fff" style="fill: var(--color1, #fff)" d="M14.429 14.857h7.714v0.857h-7.714v-0.857z"></path>
    <path fill="#fff" style="fill: var(--color1, #fff)" d="M14.429 13.143h7.714v0.857h-7.714v-0.857z"></path>
    <path fill="#fff" style="fill: var(--color1, #fff)" d="M17 6.714h2.571v0.857h-2.571v-0.857z"></path>
    <path fill="#fff" style="fill: var(--color1, #fff)" d="M31.143 10.571v-0.857c-0.001-0.341-0.137-0.667-0.378-0.908s-0.567-0.377-0.908-0.378h-1.697l-0.887-3.111-0.266-1.059c-0.070-0.278-0.23-0.525-0.456-0.701s-0.504-0.272-0.791-0.272h-3.617v-1.714c-0.001-0.227-0.091-0.445-0.252-0.605s-0.378-0.251-0.605-0.252h-6c-0.227 0.001-0.445 0.091-0.605 0.252s-0.251 0.378-0.252 0.605v1.714h-3.617c-0.287 0-0.565 0.096-0.791 0.272s-0.387 0.423-0.456 0.701l-0.261 1.054-0.891 3.116h-1.697c-0.341 0.001-0.667 0.137-0.908 0.378s-0.377 0.567-0.378 0.908v0.857c0.001 0.217 0.056 0.431 0.162 0.62s0.258 0.349 0.442 0.464c-0.387 0.398-0.604 0.932-0.604 1.487v5.143c0.001 0.18 0.039 0.358 0.113 0.521s0.181 0.311 0.316 0.43v1.62c0.001 0.341 0.137 0.667 0.378 0.908s0.567 0.377 0.908 0.378h3.429c0.341-0.001 0.667-0.137 0.908-0.378s0.377-0.567 0.378-0.908v-1.286h12.857v1.286c0.001 0.341 0.137 0.667 0.378 0.908s0.567 0.377 0.908 0.378h3.429c0.341-0.001 0.667-0.137 0.908-0.378s0.377-0.567 0.378-0.908v-1.62c0.134-0.12 0.242-0.266 0.316-0.43s0.112-0.342 0.113-0.521v-5.143c0-0.556-0.217-1.089-0.604-1.487 0.184-0.115 0.336-0.274 0.442-0.464s0.162-0.403 0.162-0.62zM15.286 1.571h6v1.714h-6v-1.714zM10.396 4.469c0.023-0.093 0.076-0.175 0.152-0.234s0.168-0.091 0.264-0.091h14.949c0.096 0 0.189 0.032 0.264 0.091s0.129 0.142 0.152 0.234l0.133 0.531h-16.046l0.133-0.531zM10.036 5.857h16.5l1.466 5.143h-12.326c-0.101-0.599-0.41-1.143-0.874-1.535s-1.051-0.607-1.659-0.607-1.195 0.215-1.659 0.607c-0.464 0.392-0.773 0.936-0.874 1.535h-2.040l1.466-5.143zM14.797 11h-3.309c0.094-0.368 0.307-0.694 0.607-0.927s0.668-0.359 1.048-0.359 0.748 0.126 1.048 0.359c0.3 0.233 0.513 0.559 0.607 0.927zM6.286 9.714c0-0.114 0.045-0.223 0.126-0.303s0.189-0.126 0.303-0.126h1.453l-0.489 1.714h-0.964c-0.114 0-0.223-0.045-0.303-0.126s-0.126-0.189-0.126-0.303v-0.857zM11 20.857c0 0.114-0.045 0.223-0.126 0.303s-0.189 0.125-0.303 0.125h-3.429c-0.114 0-0.223-0.045-0.303-0.125s-0.126-0.189-0.126-0.303v-1.286h4.286v1.286zM29.857 20.857c0 0.114-0.045 0.223-0.125 0.303s-0.189 0.125-0.303 0.125h-3.429c-0.114 0-0.223-0.045-0.303-0.125s-0.125-0.189-0.125-0.303v-1.286h4.286v1.286zM30.286 18.286c0 0.114-0.045 0.223-0.125 0.303s-0.189 0.125-0.303 0.125h-23.143c-0.114 0-0.223-0.045-0.303-0.125s-0.126-0.189-0.126-0.303v-0.429h24v0.429zM30.286 17h-24v-3.857c0.001-0.341 0.137-0.667 0.378-0.908s0.567-0.377 0.908-0.378h21.429c0.341 0.001 0.667 0.137 0.908 0.378s0.377 0.567 0.378 0.908v3.857zM30.286 10.571c0 0.114-0.045 0.223-0.125 0.303s-0.189 0.126-0.303 0.126h-0.964l-0.488-1.714h1.453c0.114 0 0.223 0.045 0.303 0.126s0.125 0.189 0.125 0.303v0.857z"></path>
  </symbol>
  <symbol id="icon-telegram" viewBox="0 0 32 32">
    <path fill="#84829a" style="fill: var(--color1, #84829a)" d="M28.213 2.84l-14.44 14.493c-0.166-0.096-0.34-0.176-0.52-0.24l-9.533-3.227c-0.288-0.072-0.544-0.239-0.727-0.473s-0.282-0.523-0.282-0.82c0-0.297 0.099-0.586 0.282-0.82s0.439-0.401 0.727-0.473l23.653-8.413c0.154-0.053 0.317-0.080 0.48-0.080 0.122-0.002 0.244 0.016 0.36 0.053z"></path>
    <path fill="#84829a" style="fill: var(--color1, #84829a)" d="M29.134 4.627l-8.413 23.68c-0.093 0.276-0.273 0.514-0.514 0.678s-0.529 0.244-0.819 0.229c-0.294 0.014-0.584-0.071-0.826-0.24s-0.42-0.413-0.508-0.694l-3.173-9.533c-0.064-0.18-0.144-0.354-0.24-0.52l14.52-14.44c0.082 0.276 0.073 0.57-0.026 0.84z"></path>
  </symbol>
  <symbol id="icon-leaf" viewBox="0 0 25 32">
    <path fill="#84829a" style="fill: var(--color1, #84829a)" d="M31.21 0.345c-0.843-0.247-21.467-2.3-28.71 7.485-3.208 4.335-3.256 10.278-0.161 17.661-0.785 1.63-1.473 3.346-2.033 5.158-0.17 0.55 0.138 1.134 0.688 1.304 0.102 0.032 0.206 0.047 0.309 0.047 0.445 0 0.857-0.287 0.995-0.734 5.521-17.848 23.461-26.482 28.962-28.664 0.535-0.212 1.251-1.876-0.050-2.257z"></path>
    <path fill="#84829a" style="fill: var(--color1, #84829a)" d="M5.65 27.725c2.986 1.253 5.972 1.895 8.748 1.895 2.496 0 4.823-0.513 6.828-1.554 4.036-2.094 6.503-6.099 7.132-11.583 0.642-5.59 1.44-9.091 2.107-11.232-5.932 2.736-18.652 9.829-24.816 22.475z"></path>
  </symbol>
  <symbol id="icon-map" viewBox="0 0 32 32">
    <path fill="#84829a" style="fill: var(--color1, #84829a)" d="M30.859 0c-0.178-0-0.353 0.041-0.512 0.121l-8.66 4.331-9.793-4.353c-0.016-0.007-0.034-0.008-0.051-0.015-0.044-0.016-0.089-0.030-0.135-0.041-0.045-0.012-0.092-0.022-0.138-0.029-0.093-0.008-0.186-0.008-0.279 0-0.047 0.007-0.093 0.016-0.138 0.029-0.046 0.011-0.091 0.025-0.135 0.041-0.017 0.007-0.035 0.008-0.051 0.015l-10.286 4.571c-0.413 0.183-0.679 0.593-0.679 1.045v25.142c0 0.387 0.196 0.747 0.52 0.958s0.733 0.244 1.087 0.087l9.822-4.366 9.822 4.366c0.017 0.007 0.035 0 0.053 0.010 0.277 0.124 0.594 0.117 0.865-0.019 0.018-0.008 0.039 0 0.057-0.013l9.143-4.571c0.387-0.194 0.632-0.59 0.632-1.023v-25.142c0-0.631-0.511-1.143-1.142-1.143zM10.288 25.543l-8 3.555v-22.641l8-3.555v22.641zM20.573 29.098l-8-3.555v-22.641l8 3.555v22.641zM29.716 25.58l-6.857 3.428v-22.587l6.857-3.429v22.587z"></path>
  </symbol>
  <symbol id="icon-send" viewBox="0 0 38 25">
    <path fill="#fff" style="fill: var(--color1, #fff)" d="M36.611 1.99c0.691 1.197 0.599 2.623-0.243 3.721l-18.474 24.107c-0.762 0.994-2.016 1.501-3.299 1.255-1.256-0.242-2.252-1.157-2.598-2.389l-3.018-10.741-7.792-7.984c-0.894-0.915-1.189-2.236-0.77-3.444 0.415-1.195 1.454-2.062 2.736-2.23l30.114-3.945c1.371-0.18 2.652 0.453 3.343 1.65z"></path>
  </symbol>
  <symbol id="icon-facebook" viewBox="0 0 33 32">
    <path fill="#335bf5" style="fill: var(--color1, #335bf5)" d="M31.387 0h-29.44c-0.708 0-1.28 0.572-1.28 1.28v29.44c0 0.708 0.572 1.28 1.28 1.28h29.44c0.708 0 1.28-0.572 1.28-1.28v-29.44c0-0.708-0.572-1.28-1.28-1.28zM27.691 9.34h-2.556c-2.004 0-2.392 0.952-2.392 2.352v3.084h4.784l-0.624 4.828h-4.16v12.396h-4.988v-12.392h-4.172v-4.832h4.172v-3.56c0-4.132 2.524-6.384 6.212-6.384 1.768 0 3.284 0.132 3.728 0.192v4.316h-0.004z"></path>
  </symbol>
  <symbol id="icon-instagram" viewBox="0 0 33 32">
    <path fill="#e61f5a" style="fill: var(--color2, #e61f5a)" d="M16.669 7.796c-4.54 0-8.204 3.664-8.204 8.204s3.664 8.204 8.204 8.204c4.54 0 8.204-3.664 8.204-8.204s-3.664-8.204-8.204-8.204zM16.669 21.332c-2.936 0-5.332-2.396-5.332-5.332s2.396-5.332 5.332-5.332c2.936 0 5.332 2.396 5.332 5.332s-2.396 5.332-5.332 5.332zM25.209 5.548c-1.060 0-1.916 0.856-1.916 1.916s0.856 1.916 1.916 1.916c1.060 0 1.916-0.852 1.916-1.916 0-0.252-0.049-0.501-0.145-0.734s-0.237-0.444-0.415-0.622-0.389-0.319-0.622-0.415c-0.233-0.096-0.482-0.146-0.734-0.145zM32.661 16c0-2.208 0.020-4.396-0.104-6.6-0.124-2.56-0.708-4.832-2.58-6.704-1.876-1.876-4.144-2.456-6.704-2.58-2.208-0.124-4.396-0.104-6.6-0.104-2.208 0-4.396-0.020-6.6 0.104-2.56 0.124-4.832 0.708-6.704 2.58-1.876 1.876-2.456 4.144-2.58 6.704-0.124 2.208-0.104 4.396-0.104 6.6s-0.020 4.396 0.104 6.6c0.124 2.56 0.708 4.832 2.58 6.704 1.876 1.876 4.144 2.456 6.704 2.58 2.208 0.124 4.396 0.104 6.6 0.104 2.208 0 4.396 0.020 6.6-0.104 2.56-0.124 4.832-0.708 6.704-2.58 1.876-1.876 2.456-4.144 2.58-6.704 0.128-2.204 0.104-4.392 0.104-6.6zM29.141 25.432c-0.292 0.728-0.644 1.272-1.208 1.832-0.564 0.564-1.104 0.916-1.832 1.208-2.104 0.836-7.1 0.648-9.432 0.648s-7.332 0.188-9.436-0.644c-0.728-0.292-1.272-0.644-1.832-1.208-0.564-0.564-0.916-1.104-1.208-1.832-0.832-2.108-0.644-7.104-0.644-9.436s-0.188-7.332 0.644-9.436c0.292-0.728 0.644-1.272 1.208-1.832s1.104-0.916 1.832-1.208c2.104-0.832 7.104-0.644 9.436-0.644s7.332-0.188 9.436 0.644c0.728 0.292 1.272 0.644 1.832 1.208 0.564 0.564 0.916 1.104 1.208 1.832 0.832 2.104 0.644 7.104 0.644 9.436s0.188 7.328-0.648 9.432z"></path>
  </symbol>
  <symbol id="icon-twitter" viewBox="0 0 40 32">
    <path fill="#21a6df" style="fill: var(--color3, #21a6df)" d="M39.201 3.945c-1.411 0.617-2.946 1.062-4.527 1.235 1.642-0.99 2.871-2.553 3.457-4.397-1.54 0.93-3.228 1.582-4.988 1.927-0.736-0.798-1.625-1.434-2.613-1.867s-2.054-0.656-3.131-0.654c-4.356 0-7.86 3.583-7.86 7.981 0 0.617 0.074 1.235 0.194 1.829-6.523-0.346-12.341-3.509-16.208-8.35-0.705 1.222-1.074 2.612-1.069 4.028 0 2.769 1.388 5.211 3.503 6.648-1.247-0.050-2.465-0.398-3.554-1.015v0.098c0 3.878 2.701 7.092 6.302 7.831-0.676 0.178-1.371 0.269-2.070 0.271-0.512 0-0.996-0.052-1.484-0.122 0.996 3.162 3.895 5.459 7.348 5.534-2.701 2.147-6.085 3.41-9.759 3.41-0.659 0-1.268-0.023-1.899-0.098 3.485 2.269 7.62 3.579 12.073 3.579 14.456 0 22.367-12.154 22.367-22.703 0-0.346 0-0.692-0.023-1.039 1.531-1.137 2.872-2.545 3.941-4.126z"></path>
  </symbol>
  <symbol id="icon-youtube" viewBox="0 0 44 32">
    <path fill="#e42f08" style="fill: var(--color4, #e42f08)" d="M42.613 5.211c-0.242-0.947-0.718-1.811-1.377-2.505s-1.481-1.193-2.382-1.448c-3.318-0.944-16.653-0.944-16.653-0.944s-13.334 0-16.653 0.944c-0.901 0.255-1.723 0.754-2.382 1.448s-1.135 1.558-1.377 2.505c-0.62 3.559-0.92 7.17-0.898 10.788-0.022 3.618 0.278 7.229 0.898 10.788 0.243 0.948 0.717 1.811 1.377 2.505s1.481 1.193 2.382 1.448c3.318 0.944 16.653 0.944 16.653 0.944s13.334 0 16.653-0.944c0.901-0.255 1.723-0.755 2.382-1.448s1.135-1.558 1.377-2.505c0.62-3.559 0.92-7.17 0.898-10.788 0.022-3.618-0.279-7.229-0.898-10.788zM17.939 22.722v-13.445l11.066 6.723-11.066 6.723z"></path>
  </symbol>
</svg>