<svg width="17" height="18" viewBox="0 0 17 18" fill="none" xmlns="http://www.w3.org/2000/svg">
<path d="M15.1129 2.20466C14.2689 1.22445 13.0864 0.666721 11.8474 0.664653C10.6075 0.666204 9.42372 1.22364 8.5785 2.20403L8.29044 2.53296L8.00238 2.20403C6.32523 0.253465 3.50231 0.141447 1.69728 1.95378C1.61729 2.03412 1.54004 2.11756 1.4657 2.20403C-0.313435 4.27773 -0.313435 7.48254 1.4657 9.55624L7.86711 16.8511C8.08858 17.1038 8.45765 17.1146 8.69145 16.8753C8.69911 16.8674 8.70656 16.8594 8.7138 16.8511L15.1129 9.55624C16.8919 7.48276 16.8919 4.27814 15.1129 2.20466ZM14.2691 8.68856H14.2685L8.29044 15.502L2.3118 8.68856C0.952648 7.10406 0.952648 4.65558 2.3118 3.07108C3.54608 1.62548 5.63117 1.53484 6.96894 2.86861C7.03389 2.93337 7.09638 3.0009 7.15631 3.07108L7.86711 3.88142C8.10136 4.13293 8.47955 4.13293 8.7138 3.88142L9.4246 3.07171C10.6589 1.62611 12.744 1.53547 14.0817 2.86924C14.1467 2.934 14.2092 3.00152 14.2691 3.07171C15.6401 4.65872 15.6501 7.11167 14.2691 8.68856Z" fill="#4152CA">
</svg>
