<svg width="119" height="154" viewBox="0 0 119 154" fill="none" xmlns="http://www.w3.org/2000/svg">
<path d="M72.3891 86.9413C71.0307 87.2456 69.7077 87.8091 68.5022 88.5965C65.3614 90.5978 63.5341 93.4546 64.421 94.9767C65.308 96.4988 68.5731 96.1095 71.7138 94.1082C72.9356 93.3486 74.021 92.3779 74.9032 91.2559C75.3125 90.7138 75.386 90.0383 75.0908 89.5334L73.9386 87.556C73.6454 87.0495 73.0374 86.8086 72.3891 86.9413Z" fill="#D5D6DB"/>
<path d="M64.5021 59.9482C63.5171 60.169 62.5577 60.5778 61.6834 61.1488C59.4066 62.5996 58.0808 64.671 58.7234 65.7738C59.366 66.8766 61.7345 66.5941 64.0111 65.1434C64.897 64.5923 65.6839 63.8881 66.3237 63.0744C66.6202 62.6815 66.6733 62.1922 66.4593 61.8261L65.6251 60.3943C65.4128 60.0271 64.9722 59.8521 64.5021 59.9482Z" fill="#D5D6DB"/>
<path d="M51.6879 61.0787C51.4686 61.0542 51.2348 61.1126 51.032 61.2421L45.6839 64.6503C45.2365 64.9346 45.0575 65.4819 45.2844 65.8731C45.3363 65.9627 45.4073 66.0393 45.4936 66.0983L58.6752 75.1832L76.5087 63.8185L51.6879 61.0787Z" fill="#029BC5"/>
<path d="M108.065 59.794L59.5329 90.3461L30.8201 101.772L16.177 104.682L14.566 101.945L95.4612 51.9985C97.872 50.5036 100.558 49.586 103.246 49.3389C104.424 49.237 105.587 49.2762 106.708 49.455C107.702 49.6057 108.645 49.8964 109.508 50.3185C110.472 50.7967 112.307 50.8519 112.901 51.8047C112.903 51.8032 114.305 56.1776 108.065 59.794V59.794Z" fill="#E1E6E9"/>
<path d="M60.1762 86.3036L39.1809 119.774C38.9186 120.244 39.0743 120.77 39.5282 120.949C39.8067 121.059 40.1477 121.016 40.4341 120.834L45.7781 117.444C46.8059 116.791 47.7161 115.963 48.4522 115.009L89.1686 67.1404L60.1762 86.3036Z" fill="#029BC5"/>
<path d="M7.19656 85.1861C6.84633 85.0664 6.42955 85.1285 6.07772 85.3525L1.66023 88.1659C1.05831 88.549 0.818461 89.2854 1.12432 89.8111C1.1826 89.911 1.2583 89.999 1.34903 90.0714L13.7258 99.9838L26.7388 91.8557L7.19656 85.1861Z" fill="#029BC5"/>
<path d="M17.8742 101.771L11.2127 111.1C11.115 111.234 11.138 111.403 11.264 111.476C11.3548 111.529 11.4788 111.519 11.5796 111.452L15.7078 108.836C15.7399 108.815 15.7689 108.79 15.7929 108.761L25.5265 96.9261L17.8742 101.771Z" fill="#029BC5"/>
<path d="M105.911 49.8572C104.757 49.6718 103.559 49.6322 102.346 49.7388C101.165 51.3899 100.411 53.2446 100.157 55.118C100.139 55.4943 100.442 55.7652 100.835 55.723C100.957 55.7098 101.079 55.6669 101.188 55.5981L108.796 50.7538C107.906 50.3152 106.935 50.0134 105.911 49.8572Z" fill="#029BC5"/>
<path d="M89.332 58.7653L94.299 55.6284L98.9257 63.4974L93.9586 66.6343L89.332 58.7653Z" fill="#D5D6DB"/>
<path d="M86.2066 61.8775C85.608 62.2567 85.3688 62.9855 85.6727 63.5052L86.165 64.3472C86.4888 64.8536 87.2281 64.9427 87.8164 64.546C88.3762 64.1682 88.6016 63.4815 88.3318 62.9745L87.8395 62.1325C87.5359 61.6132 86.8051 61.499 86.2066 61.8775V61.8775Z" fill="#3A556A"/>
<path d="M81.7422 64.65C81.1436 65.0291 80.9044 65.7579 81.2082 66.2777L81.7006 67.1196C82.0244 67.6261 82.7637 67.7152 83.3519 67.3185C83.9118 66.9407 84.1372 66.254 83.8674 65.747L83.3751 64.905C83.0712 64.3859 82.3404 64.2716 81.7422 64.65V64.65Z" fill="#3A556A"/>
<path d="M77.2763 67.4233C76.6784 67.803 76.44 68.5309 76.7436 69.0501L77.236 69.8921C77.5598 70.3986 78.2991 70.4876 78.8873 70.0909C79.4472 69.7131 79.6726 69.0265 79.4028 68.5195L78.9105 67.6775C78.6066 67.1578 77.8751 67.044 77.2763 67.4233V67.4233Z" fill="#3A556A"/>
<path d="M72.812 70.1957C72.2141 70.5754 71.9757 71.3033 72.2793 71.8226L72.7717 72.6646C73.0955 73.171 73.8348 73.2601 74.4231 72.8634C74.9829 72.4856 75.2083 71.7989 74.9385 71.2919L74.4462 70.4499C74.1421 69.9304 73.4105 69.8166 72.812 70.1957V70.1957Z" fill="#3A556A"/>
<path d="M68.3481 72.9684C67.7499 73.3482 67.5113 74.0764 67.8151 74.5959L68.3077 75.4383C68.6114 75.9575 69.3427 76.0712 69.941 75.6923C70.5394 75.3133 70.7783 74.5851 70.4746 74.0658L69.982 73.2235C69.6791 72.7037 68.9481 72.5892 68.3494 72.9676C68.3489 72.9679 68.3486 72.9681 68.3481 72.9684Z" fill="#3A556A"/>
<path d="M63.8837 75.7408C63.2854 76.1207 63.0469 76.8489 63.3507 77.3684L63.8433 78.2107C64.147 78.73 64.8782 78.8437 65.4766 78.4647C66.075 78.0857 66.3139 77.3575 66.0102 76.8383L65.5176 75.9959C65.2147 75.4762 64.4837 75.3617 63.8849 75.74C63.8844 75.7404 63.8839 75.7407 63.8837 75.7408Z" fill="#3A556A"/>
<path d="M59.4191 78.5134C58.8208 78.8932 58.5823 79.6214 58.8861 80.1409L59.3787 80.9832C59.6831 81.502 60.4147 81.6145 61.0125 81.2351C61.6092 80.8562 61.8476 80.1296 61.5453 79.6109L61.0527 78.7686C60.7492 78.249 60.0179 78.1347 59.4191 78.5134Z" fill="#3A556A"/>
<path d="M54.9545 81.2859C54.3562 81.6657 54.1177 82.3939 54.4215 82.9134L54.9141 83.7558C55.2185 84.2746 55.9501 84.3871 56.5479 84.0076C57.1446 83.6288 57.383 82.9021 57.0807 82.3835L56.5881 81.5411C56.2846 81.0215 55.5533 80.9072 54.9545 81.2859Z" fill="#3A556A"/>
<path d="M50.4902 84.0583C49.8919 84.4381 49.6534 85.1663 49.9572 85.6858L50.4498 86.5281C50.7542 87.0469 51.4858 87.1595 52.0836 86.78C52.6803 86.4011 52.9187 85.6745 52.6164 85.1559L52.1238 84.3136C51.82 83.7941 51.0888 83.6798 50.4902 84.0583Z" fill="#3A556A"/>
<path d="M46.0243 86.8315C45.426 87.2105 45.1871 87.9387 45.4908 88.458L45.4914 88.4591L45.984 89.3014C46.2884 89.8202 47.02 89.9328 47.6177 89.5533C48.2144 89.1744 48.4528 88.4478 48.1506 87.9291L47.658 87.0868C47.3545 86.5671 46.6232 86.4528 46.0243 86.8315Z" fill="#3A556A"/>
<path d="M41.5612 89.6032C40.9628 89.9822 40.7239 90.7104 41.0276 91.2296L41.0282 91.2307L41.5208 92.073C41.8252 92.5918 42.5568 92.7044 43.1546 92.3249C43.7513 91.9461 43.9897 91.2194 43.6874 90.7008L43.1948 89.8585C42.891 89.339 42.1598 89.2247 41.5612 89.6032Z" fill="#3A556A"/>
</svg>
