<svg width="32" height="26" viewBox="0 0 32 26" fill="none" xmlns="http://www.w3.org/2000/svg">
<g filter="url(#filter0_d_1_281)">
<path d="M24.8184 17.9286C24.3682 17.9378 23.926 17.809 23.5512 17.5595C23.2723 17.3772 22.9462 17.2802 22.613 17.2802C22.2797 17.2802 21.9537 17.3772 21.6747 17.5595C21.2961 17.8006 20.8566 17.9286 20.4077 17.9286C19.9589 17.9286 19.5194 17.8006 19.1408 17.5595C18.8618 17.377 18.5357 17.2799 18.2023 17.2799C17.869 17.2799 17.5429 17.377 17.2639 17.5595C16.8853 17.8006 16.4458 17.9286 15.9969 17.9286C15.5481 17.9286 15.1086 17.8006 14.7299 17.5595C14.4512 17.3772 14.1253 17.28 13.7922 17.28C13.459 17.28 13.1331 17.3772 12.8544 17.5595C12.5111 17.7876 12.1105 17.9144 11.6985 17.9253L11.6758 17.2767C11.9801 17.2695 12.2757 17.1732 12.5258 16.9997C12.9044 16.7587 13.3438 16.6307 13.7925 16.6307C14.2412 16.6307 14.6806 16.7587 15.0591 16.9997C15.3381 17.1821 15.6641 17.2792 15.9974 17.2792C16.3307 17.2792 16.6567 17.1821 16.9357 16.9997C17.3143 16.7585 17.754 16.6304 18.203 16.6304C18.6519 16.6304 19.0916 16.7585 19.4703 16.9997C19.7492 17.1821 20.0753 17.2792 20.4085 17.2792C20.7418 17.2792 21.0679 17.1821 21.3468 16.9997C21.7255 16.7588 22.165 16.6308 22.6138 16.6308C23.0626 16.6308 23.5021 16.7588 23.8808 16.9997C24.1604 17.1825 24.4872 17.2799 24.8213 17.2799C25.1554 17.2799 25.4822 17.1825 25.7618 16.9997C26.1362 16.751 26.5776 16.6224 27.027 16.6313V17.2799C26.6924 17.2708 26.3636 17.3686 26.0884 17.5592C25.7127 17.809 25.2695 17.9379 24.8184 17.9286Z" fill="white">
<path d="M7.17837 17.9285C6.7283 17.9378 6.28619 17.809 5.91156 17.5594C5.63643 17.3686 5.30761 17.2707 4.97296 17.2798V16.6312C5.42313 16.6218 5.86536 16.7506 6.2401 17.0002C6.51507 17.191 6.84381 17.289 7.17837 17.2798C7.51307 17.289 7.84195 17.1909 8.11696 16.9999C8.4909 16.7504 8.9324 16.6217 9.38182 16.6312C9.82036 16.6213 10.2516 16.7442 10.6191 16.9837L10.2919 17.5435C10.0234 17.3628 9.70525 17.2706 9.38182 17.2798C9.0485 17.2708 8.72102 17.3685 8.44712 17.5587C8.07206 17.809 7.62917 17.9381 7.17837 17.9285Z" fill="white">
<path d="M24.8193 15.6579C24.3689 15.6671 23.9264 15.5383 23.5512 15.2888C23.272 15.1064 22.9457 15.0092 22.6122 15.0092C22.2786 15.0092 21.9523 15.1064 21.6731 15.2888C21.2945 15.5298 20.855 15.6578 20.4063 15.6578C19.9575 15.6578 19.518 15.5298 19.1395 15.2888C18.8606 15.1065 18.5347 15.0094 18.2015 15.0094C17.8683 15.0094 17.5424 15.1065 17.2636 15.2888C16.885 15.5299 16.4455 15.6579 15.9967 15.6579C15.548 15.6579 15.1085 15.5299 14.7299 15.2888C14.4511 15.1065 14.1252 15.0094 13.792 15.0094C13.4588 15.0094 13.1329 15.1065 12.854 15.2888C12.4794 15.5384 12.0373 15.6672 11.5872 15.6579C11.1372 15.6672 10.695 15.5384 10.3204 15.2888C10.0455 15.0981 9.71693 15.0001 9.38248 15.0093C9.04813 15.0002 8.71963 15.0981 8.44485 15.2888C8.07083 15.5381 7.62941 15.6669 7.17999 15.6579C6.72982 15.6672 6.28759 15.5384 5.91285 15.2888C5.63743 15.0977 5.30807 14.9997 4.97296 15.0093V14.3606C5.42302 14.3513 5.86513 14.4801 6.23977 14.7297C6.5149 14.9204 6.84372 15.0184 7.17837 15.0093C7.51271 15.0183 7.84121 14.9204 8.11599 14.7297C8.49002 14.4804 8.93143 14.3516 9.38085 14.3606C9.83125 14.351 10.2738 14.4799 10.6486 14.7297C10.9236 14.9205 11.2524 15.0184 11.5869 15.0093C11.9215 15.0184 12.2502 14.9205 12.5252 14.7297C12.9037 14.4886 13.3432 14.3605 13.792 14.3605C14.2408 14.3605 14.6803 14.4886 15.0588 14.7297C15.3377 14.9121 15.6637 15.0092 15.9969 15.0092C16.3301 15.0092 16.6561 14.9121 16.935 14.7297C17.3136 14.4886 17.753 14.3605 18.2018 14.3605C18.6506 14.3605 19.0901 14.4886 19.4686 14.7297C19.7475 14.9121 20.0735 15.0092 20.4067 15.0092C20.74 15.0092 21.066 14.9121 21.3449 14.7297C21.7238 14.4887 22.1636 14.3607 22.6126 14.3607C23.0617 14.3607 23.5015 14.4887 23.8804 14.7297C24.1598 14.912 24.4862 15.0091 24.8198 15.0091C25.1534 15.0091 25.4798 14.912 25.7592 14.7297C26.1343 14.4803 26.5767 14.3515 27.027 14.3606V15.0093C26.6917 14.9998 26.3622 15.0977 26.0865 15.2888C25.7116 15.5381 25.2695 15.6669 24.8193 15.6579Z" fill="white">
<path d="M24.8184 13.388C24.3682 13.3972 23.926 13.2684 23.5512 13.0189C23.2761 12.8282 22.9473 12.7303 22.6126 12.7394C22.367 12.7309 22.1232 12.7833 21.9027 12.8918L21.6166 12.308C21.9263 12.1563 22.2679 12.0814 22.6126 12.0897C23.0633 12.0806 23.506 12.2097 23.8811 12.4598C24.1607 12.6426 24.4875 12.7399 24.8216 12.7399C25.1557 12.7399 25.4825 12.6426 25.7622 12.4598C26.1364 12.2109 26.5777 12.0821 27.027 12.0907V12.7394C26.6924 12.7302 26.3636 12.828 26.0884 13.0186C25.7127 13.2685 25.2695 13.3974 24.8184 13.388Z" fill="white">
<path d="M20.4043 13.3879C19.9549 13.3973 19.5134 13.2686 19.1394 13.0191C18.8605 12.8366 18.5344 12.7395 18.201 12.7395C17.8677 12.7395 17.5416 12.8366 17.2626 13.0191C16.884 13.2602 16.4444 13.3882 15.9956 13.3882C15.5468 13.3882 15.1073 13.2602 14.7286 13.0191C14.4497 12.8367 14.1236 12.7396 13.7904 12.7396C13.4571 12.7396 13.131 12.8367 12.8521 13.0191C12.4775 13.2683 12.0357 13.397 11.5859 13.3879C11.1359 13.3972 10.6938 13.2684 10.3191 13.0188C10.044 12.8281 9.71518 12.7301 9.38053 12.7392C9.0472 12.7302 8.71972 12.828 8.44583 13.0181C8.07112 13.2682 7.62873 13.3972 7.17837 13.3879C6.7283 13.3972 6.28619 13.2684 5.91156 13.0188C5.63643 12.8281 5.30761 12.7301 4.97296 12.7392V12.0906C5.42313 12.0812 5.86536 12.21 6.2401 12.4597C6.51507 12.6504 6.84381 12.7484 7.17837 12.7392C7.51308 12.7484 7.84196 12.6503 8.11696 12.4593C8.4909 12.2098 8.9324 12.0811 9.38183 12.0906C9.83189 12.0813 10.274 12.2101 10.6486 12.4597C10.9236 12.6504 11.2524 12.7484 11.5869 12.7392C11.9216 12.7483 12.2504 12.6504 12.5255 12.4597C12.9041 12.2186 13.3436 12.0906 13.7925 12.0906C14.2413 12.0906 14.6808 12.2186 15.0594 12.4597C15.3384 12.642 15.6644 12.7391 15.9977 12.7391C16.331 12.7391 16.657 12.642 16.936 12.4597C17.3147 12.2184 17.7543 12.0903 18.2033 12.0903C18.6523 12.0903 19.0919 12.2184 19.4706 12.4597C19.7563 12.6518 20.0952 12.7495 20.4393 12.7389C20.4644 12.7392 20.4894 12.7379 20.5143 12.735L20.6005 13.3778C20.5354 13.3854 20.4699 13.3888 20.4043 13.3879Z" fill="white">
<path d="M24.8193 11.1174C24.3689 11.1266 23.9264 10.9978 23.5512 10.7483C23.272 10.5658 22.9457 10.4687 22.6122 10.4687C22.2786 10.4687 21.9523 10.5658 21.6731 10.7483C21.2945 10.9893 20.855 11.1173 20.4063 11.1173C19.9575 11.1173 19.518 10.9893 19.1395 10.7483C18.8606 10.5659 18.5347 10.4688 18.2015 10.4688C17.8683 10.4688 17.5424 10.5659 17.2636 10.7483C16.885 10.9893 16.4455 11.1174 15.9967 11.1174C15.548 11.1174 15.1085 10.9893 14.7299 10.7483C14.4511 10.5659 14.1252 10.4688 13.792 10.4688C13.4588 10.4688 13.1329 10.5659 12.854 10.7483C12.4794 10.9979 12.0373 11.1267 11.5872 11.1174C11.1372 11.1267 10.695 10.9979 10.3204 10.7483C10.0455 10.5575 9.71693 10.4596 9.38248 10.4687C9.04813 10.4596 8.71963 10.5576 8.44485 10.7483C8.07083 10.9976 7.62941 11.1264 7.17999 11.1174C6.72982 11.1267 6.28759 10.9979 5.91285 10.7483C5.63743 10.5572 5.30807 10.4592 4.97296 10.4687V9.82008C5.42302 9.81077 5.86513 9.93958 6.23977 10.1892C6.5149 10.3799 6.84372 10.4778 7.17837 10.4687C7.51271 10.4778 7.84121 10.3799 8.11599 10.1892C8.49002 9.93983 8.93143 9.81103 9.38085 9.82008C9.83125 9.81051 10.2738 9.93933 10.6486 10.1892C10.9236 10.3799 11.2524 10.4779 11.5869 10.4687C11.9215 10.4779 12.2502 10.3799 12.5252 10.1892C12.9037 9.94806 13.3432 9.82 13.792 9.82C14.2408 9.82 14.6803 9.94806 15.0588 10.1892C15.3377 10.3715 15.6637 10.4687 15.9969 10.4687C16.3301 10.4687 16.6561 10.3715 16.935 10.1892C17.3136 9.94806 17.753 9.82 18.2018 9.82C18.6506 9.82 19.0901 9.94806 19.4686 10.1892C19.7475 10.3715 20.0735 10.4687 20.4067 10.4687C20.74 10.4687 21.066 10.3715 21.3449 10.1892C21.7238 9.94816 22.1636 9.82016 22.6126 9.82016C23.0617 9.82016 23.5015 9.94816 23.8804 10.1892C24.1598 10.3715 24.4862 10.4686 24.8198 10.4686C25.1534 10.4686 25.4798 10.3715 25.7592 10.1892C26.1343 9.93973 26.5767 9.81095 27.027 9.82008V10.4687C26.6917 10.4592 26.3622 10.5572 26.0865 10.7483C25.7116 10.9976 25.2695 11.1264 24.8193 11.1174Z" fill="white">
<path d="M20.1977 10.8423L19.5857 10.6276C19.7434 10.1748 19.8077 9.69472 19.775 9.21634C19.7423 8.73795 19.6132 8.27113 19.3954 7.84396L17.1676 3.48147C17.1456 3.43839 17.1335 3.39094 17.1322 3.34258C17.1309 3.29423 17.1405 3.2462 17.1602 3.20201C17.1798 3.15783 17.2092 3.1186 17.246 3.08721C17.2828 3.05583 17.3261 3.03307 17.3729 3.02061L21.8125 1.83682C21.9572 1.79899 22.0811 1.70555 22.1572 1.57684C22.2334 1.44813 22.2556 1.29456 22.2191 1.14954C22.1826 1.00453 22.0903 0.879793 21.9623 0.802481C21.8343 0.725169 21.6809 0.701533 21.5356 0.736716L16.1622 2.02104C16.0473 2.04818 15.9402 2.10141 15.8492 2.17659C15.7582 2.25177 15.6858 2.34688 15.6374 2.45457C15.5891 2.56226 15.5662 2.67963 15.5705 2.79758C15.5749 2.91553 15.6063 3.03091 15.6624 3.13477L17.2581 6.09909C17.2985 6.17443 17.3076 6.26271 17.2833 6.34471C17.259 6.42671 17.2033 6.4958 17.1283 6.53693L15.0689 7.67206L14.7559 7.10385L16.5338 6.12374L15.0919 3.44223C14.9887 3.2508 14.931 3.03822 14.9231 2.82091C14.9153 2.6036 14.9575 2.38739 15.0465 2.18901C15.1355 1.99062 15.269 1.81537 15.4366 1.67681C15.6042 1.53824 15.8014 1.44008 16.013 1.3899L21.3838 0.105905C21.6965 0.0268991 22.0277 0.0753364 22.3047 0.240561C22.5816 0.405786 22.7816 0.674263 22.8606 0.986932C22.9396 1.2996 22.8912 1.63085 22.7259 1.9078C22.5607 2.18476 22.2922 2.38474 21.9796 2.46374L17.9275 3.54374L19.9733 7.5485C20.2309 8.05401 20.3836 8.60642 20.4222 9.17248C20.4607 9.73854 20.3844 10.3065 20.1977 10.8423Z" fill="white">
<path d="M13.6223 7.73377L9.681 9.90552L9.99389 10.4733L13.9351 8.3016L13.6223 7.73377Z" fill="white">
<path d="M23.1351 8.68493C22.654 8.68493 22.1838 8.54227 21.7837 8.27499C21.3837 8.00771 21.072 7.62782 20.8879 7.18335C20.7038 6.73888 20.6556 6.2498 20.7494 5.77796C20.8433 5.30611 21.075 4.87269 21.4151 4.53251C21.7553 4.19233 22.1887 3.96066 22.6606 3.86681C23.1324 3.77295 23.6215 3.82112 24.066 4.00523C24.5104 4.18933 24.8903 4.5011 25.1576 4.90111C25.4249 5.30112 25.5676 5.77141 25.5676 6.2525C25.5669 6.89741 25.3104 7.51571 24.8544 7.97173C24.3983 8.42775 23.78 8.68424 23.1351 8.68493ZM23.1351 4.46872C22.7823 4.46872 22.4375 4.57333 22.1441 4.76934C21.8508 4.96534 21.6221 5.24393 21.4871 5.56988C21.3521 5.89582 21.3168 6.25448 21.3856 6.6005C21.4544 6.94652 21.6243 7.26436 21.8738 7.51382C22.1233 7.76329 22.4411 7.93318 22.7871 8.00201C23.1331 8.07084 23.4918 8.03551 23.8178 7.9005C24.1437 7.76549 24.4223 7.53686 24.6183 7.24352C24.8143 6.95018 24.9189 6.6053 24.9189 6.2525C24.9183 5.7796 24.7302 5.32623 24.3958 4.99184C24.0614 4.65744 23.608 4.46932 23.1351 4.46872Z" fill="white">
</g>
<defs>
<filter id="filter0_d_1_281" x="0.972961" y="0.0688477" width="30.0541" height="25.8601" filterUnits="userSpaceOnUse" color-interpolation-filters="sRGB">
<feFlood flood-opacity="0" result="BackgroundImageFix">
<feColorMatrix in="SourceAlpha" type="matrix" values="0 0 0 0 0 0 0 0 0 0 0 0 0 0 0 0 0 0 127 0" result="hardAlpha">
<feOffset dy="4">
<feGaussianBlur stdDeviation="2">
<feComposite in2="hardAlpha" operator="out">
<feColorMatrix type="matrix" values="0 0 0 0 0 0 0 0 0 0 0 0 0 0 0 0 0 0 0.25 0">
<feBlend mode="normal" in2="BackgroundImageFix" result="effect1_dropShadow_1_281">
<feBlend mode="normal" in="SourceGraphic" in2="effect1_dropShadow_1_281" result="shape">
</filter>
</defs>
</svg>
