<svg width="32" height="28" viewBox="0 0 32 28" fill="none" xmlns="http://www.w3.org/2000/svg">
<g filter="url(#filter0_d_1_260)">
<path d="M8.5 11.125C8.20333 11.125 7.91332 11.213 7.66665 11.3778C7.41997 11.5426 7.22771 11.7769 7.11418 12.051C7.00065 12.3251 6.97094 12.6267 7.02882 12.9176C7.0867 13.2086 7.22956 13.4759 7.43934 13.6857C7.64912 13.8954 7.91639 14.0383 8.20737 14.0962C8.49834 14.1541 8.79994 14.1244 9.07403 14.0108C9.34812 13.8973 9.58238 13.705 9.74721 13.4584C9.91203 13.2117 10 12.9217 10 12.625C10 12.2272 9.84197 11.8456 9.56066 11.5643C9.27936 11.283 8.89783 11.125 8.5 11.125ZM8.5 13.375C8.35167 13.375 8.20666 13.331 8.08332 13.2486C7.95999 13.1662 7.86386 13.0491 7.80709 12.912C7.75033 12.775 7.73547 12.6242 7.76441 12.4787C7.79335 12.3332 7.86478 12.1996 7.96967 12.0947C8.07456 11.9898 8.2082 11.9184 8.35368 11.8894C8.49917 11.8605 8.64997 11.8753 8.78701 11.9321C8.92406 11.9889 9.04119 12.085 9.1236 12.2083C9.20601 12.3317 9.25 12.4767 9.25 12.625C9.25 12.8239 9.17098 13.0147 9.03033 13.1553C8.88968 13.296 8.69891 13.375 8.5 13.375Z" fill="white">
<path d="M23.5 11.125C23.2033 11.125 22.9133 11.213 22.6666 11.3778C22.42 11.5426 22.2277 11.7769 22.1142 12.051C22.0006 12.3251 21.9709 12.6267 22.0288 12.9176C22.0867 13.2086 22.2296 13.4759 22.4393 13.6857C22.6491 13.8954 22.9164 14.0383 23.2074 14.0962C23.4983 14.1541 23.7999 14.1244 24.074 14.0108C24.3481 13.8973 24.5824 13.705 24.7472 13.4584C24.912 13.2117 25 12.9217 25 12.625C25 12.2272 24.842 11.8456 24.5607 11.5643C24.2793 11.283 23.8978 11.125 23.5 11.125ZM23.5 13.375C23.3517 13.375 23.2067 13.331 23.0833 13.2486C22.96 13.1662 22.8639 13.0491 22.8071 12.912C22.7503 12.775 22.7355 12.6242 22.7644 12.4787C22.7933 12.3332 22.8648 12.1996 22.9697 12.0947C23.0746 11.9898 23.2082 11.9184 23.3537 11.8894C23.4992 11.8605 23.65 11.8753 23.787 11.9321C23.9241 11.9889 24.0412 12.085 24.1236 12.2083C24.206 12.3317 24.25 12.4767 24.25 12.625C24.25 12.8239 24.171 13.0147 24.0303 13.1553C23.8897 13.296 23.6989 13.375 23.5 13.375Z" fill="white">
<path d="M12.625 13H19.375V13.75H12.625V13Z" fill="white">
<path d="M12.625 11.5H19.375V12.25H12.625V11.5Z" fill="white">
<path d="M14.875 5.875H17.125V6.625H14.875V5.875Z" fill="white">
<path d="M27.25 9.25V8.5C27.2491 8.20191 27.1303 7.91627 26.9195 7.70549C26.7087 7.4947 26.4231 7.37589 26.125 7.375H24.64L23.8638 4.6525L23.6312 3.72625C23.5702 3.48304 23.4297 3.26719 23.232 3.11296C23.0343 2.95874 22.7907 2.87499 22.54 2.875H19.375V1.375C19.3744 1.17627 19.2952 0.985849 19.1547 0.845326C19.0142 0.704802 18.8237 0.625594 18.625 0.625H13.375C13.1763 0.625594 12.9858 0.704802 12.8453 0.845326C12.7048 0.985849 12.6256 1.17627 12.625 1.375V2.875H9.46C9.20926 2.87499 8.96569 2.95874 8.76799 3.11296C8.57028 3.26719 8.42976 3.48304 8.36875 3.72625L8.14 4.64875L7.36 7.375H5.875C5.57691 7.37589 5.29127 7.4947 5.08049 7.70549C4.8697 7.91627 4.75089 8.20191 4.75 8.5V9.25C4.75061 9.43997 4.79944 9.62668 4.89192 9.79262C4.9844 9.95856 5.1175 10.0983 5.27875 10.1987C4.93975 10.5471 4.75005 11.0139 4.75 11.5V16C4.75052 16.1573 4.78418 16.3128 4.84879 16.4562C4.91341 16.5996 5.00752 16.7279 5.125 16.8325V18.25C5.12589 18.5481 5.2447 18.8337 5.45549 19.0445C5.66627 19.2553 5.95191 19.3741 6.25 19.375H9.25C9.54809 19.3741 9.83373 19.2553 10.0445 19.0445C10.2553 18.8337 10.3741 18.5481 10.375 18.25V17.125H21.625V18.25C21.6259 18.5481 21.7447 18.8337 21.9555 19.0445C22.1663 19.2553 22.4519 19.3741 22.75 19.375H25.75C26.0481 19.3741 26.3337 19.2553 26.5445 19.0445C26.7553 18.8337 26.8741 18.5481 26.875 18.25V16.8325C26.9925 16.7279 27.0866 16.5996 27.1512 16.4562C27.2158 16.3128 27.2495 16.1573 27.25 16V11.5C27.25 11.0139 27.0602 10.5471 26.7213 10.1987C26.8825 10.0983 27.0156 9.95856 27.1081 9.79262C27.2006 9.62668 27.2494 9.43997 27.25 9.25ZM13.375 1.375H18.625V2.875H13.375V1.375ZM9.09625 3.91C9.11635 3.8287 9.16309 3.75647 9.22901 3.70481C9.29493 3.65316 9.37625 3.62506 9.46 3.625H22.54C22.6237 3.62506 22.7051 3.65316 22.771 3.70481C22.8369 3.75647 22.8836 3.8287 22.9037 3.91L23.02 4.375H8.98L9.09625 3.91ZM8.78125 5.125H23.2188L24.5012 9.625H13.7162C13.6281 9.10094 13.3571 8.62507 12.9514 8.28187C12.5456 7.93867 12.0314 7.75036 11.5 7.75036C10.9686 7.75036 10.4544 7.93867 10.0486 8.28187C9.64288 8.62507 9.37189 9.10094 9.28375 9.625H7.49875L8.78125 5.125ZM12.9475 9.625H10.0525C10.1344 9.30322 10.3211 9.0179 10.5833 8.81412C10.8454 8.61033 11.168 8.49969 11.5 8.49969C11.832 8.49969 12.1546 8.61033 12.4167 8.81412C12.6789 9.0179 12.8656 9.30322 12.9475 9.625ZM5.5 8.5C5.5 8.40054 5.53951 8.30516 5.60984 8.23483C5.68016 8.16451 5.77554 8.125 5.875 8.125H7.14625L6.71875 9.625H5.875C5.77554 9.625 5.68016 9.58549 5.60984 9.51517C5.53951 9.44484 5.5 9.34946 5.5 9.25V8.5ZM9.625 18.25C9.625 18.3495 9.58549 18.4448 9.51516 18.5152C9.44484 18.5855 9.34946 18.625 9.25 18.625H6.25C6.15054 18.625 6.05516 18.5855 5.98484 18.5152C5.91451 18.4448 5.875 18.3495 5.875 18.25V17.125H9.625V18.25ZM26.125 18.25C26.125 18.3495 26.0855 18.4448 26.0152 18.5152C25.9448 18.5855 25.8495 18.625 25.75 18.625H22.75C22.6505 18.625 22.5552 18.5855 22.4848 18.5152C22.4145 18.4448 22.375 18.3495 22.375 18.25V17.125H26.125V18.25ZM26.5 16C26.5 16.0995 26.4605 16.1948 26.3902 16.2652C26.3198 16.3355 26.2245 16.375 26.125 16.375H5.875C5.77554 16.375 5.68016 16.3355 5.60984 16.2652C5.53951 16.1948 5.5 16.0995 5.5 16V15.625H26.5V16ZM26.5 14.875H5.5V11.5C5.50089 11.2019 5.6197 10.9163 5.83049 10.7055C6.04127 10.4947 6.32691 10.3759 6.625 10.375H25.375C25.6731 10.3759 25.9587 10.4947 26.1695 10.7055C26.3803 10.9163 26.4991 11.2019 26.5 11.5V14.875ZM26.5 9.25C26.5 9.34946 26.4605 9.44484 26.3902 9.51517C26.3198 9.58549 26.2245 9.625 26.125 9.625H25.2812L24.8538 8.125H26.125C26.2245 8.125 26.3198 8.16451 26.3902 8.23483C26.4605 8.30516 26.5 8.40054 26.5 8.5V9.25Z" fill="white">
</g>
<defs>
<filter id="filter0_d_1_260" x="0.75" y="0.625" width="30.5" height="26.75" filterUnits="userSpaceOnUse" color-interpolation-filters="sRGB">
<feFlood flood-opacity="0" result="BackgroundImageFix">
<feColorMatrix in="SourceAlpha" type="matrix" values="0 0 0 0 0 0 0 0 0 0 0 0 0 0 0 0 0 0 127 0" result="hardAlpha">
<feOffset dy="4">
<feGaussianBlur stdDeviation="2">
<feComposite in2="hardAlpha" operator="out">
<feColorMatrix type="matrix" values="0 0 0 0 0 0 0 0 0 0 0 0 0 0 0 0 0 0 0.25 0">
<feBlend mode="normal" in2="BackgroundImageFix" result="effect1_dropShadow_1_260">
<feBlend mode="normal" in="SourceGraphic" in2="effect1_dropShadow_1_260" result="shape">
</filter>
</defs>
</svg>
